<svg xmlns="http://www.w3.org/2000/svg" xmlns:xlink="http://www.w3.org/1999/xlink" width="500" zoomAndPan="magnify" viewBox="0 0 375 225" height="300" preserveAspectRatio="xMidYMid meet" version="1.2"><defs><clipPath id="3ed658bdce"><path d="M 94.542969 4.070312 L 280.542969 4.070312 L 280.542969 88 L 94.542969 88 Z M 94.542969 4.070312 "/></clipPath><clipPath id="33f5d060db"><path d="M 124 94 L 251 94 L 251 111.320312 L 124 111.320312 Z M 124 94 "/></clipPath></defs><g id="796816725c"><g clip-rule="nonzero" clip-path="url(#3ed658bdce)"><path style=" stroke:none;fill-rule:nonzero;fill:#ffffff;fill-opacity:1;" d="M 277.242188 70.203125 C 268.730469 70.203125 264.316406 73.382812 260.414062 76.191406 C 258.050781 77.894531 255.816406 79.375 252.753906 80.226562 L 271.996094 42.910156 C 272.578125 41.777344 272.441406 40.40625 271.632812 39.417969 C 270.820312 38.429688 269.480469 37.996094 268.285156 38.355469 L 232.683594 48.335938 L 189.765625 5.429688 C 189.46875 5.128906 189.113281 4.894531 188.71875 4.730469 C 187.933594 4.40625 187.054688 4.40625 186.269531 4.730469 C 185.875 4.894531 185.519531 5.128906 185.226562 5.429688 L 142.3125 48.339844 L 106.707031 38.355469 C 105.476562 38.003906 104.164062 38.429688 103.355469 39.417969 C 102.546875 40.40625 102.410156 41.777344 102.992188 42.910156 L 122.234375 80.226562 C 119.171875 79.375 116.9375 77.894531 114.574219 76.191406 C 110.675781 73.382812 106.261719 70.203125 97.746094 70.203125 C 95.976562 70.203125 94.542969 71.636719 94.542969 73.40625 C 94.542969 75.179688 95.976562 76.613281 97.746094 76.613281 C 104.1875 76.613281 107.269531 78.828125 110.832031 81.394531 C 114.730469 84.199219 119.152344 87.382812 127.664062 87.382812 C 127.800781 87.382812 127.914062 87.367188 128.050781 87.367188 C 128.09375 87.363281 128.136719 87.363281 128.183594 87.359375 C 136.34375 87.226562 140.675781 84.140625 144.492188 81.394531 C 148.054688 78.828125 151.136719 76.613281 157.578125 76.613281 C 164.019531 76.613281 167.097656 78.828125 170.660156 81.394531 C 174.5625 84.199219 178.980469 87.382812 187.496094 87.382812 C 196.007812 87.382812 200.421875 84.199219 204.324219 81.394531 C 207.882812 78.828125 210.964844 76.613281 217.40625 76.613281 C 223.855469 76.613281 226.933594 78.828125 230.496094 81.394531 C 234.355469 84.175781 238.734375 87.308594 247.074219 87.371094 C 247.085938 87.371094 247.101562 87.382812 247.113281 87.382812 C 247.121094 87.382812 247.125 87.375 247.132812 87.375 C 247.199219 87.375 247.257812 87.382812 247.324219 87.382812 C 255.839844 87.382812 260.257812 84.199219 264.160156 81.394531 C 267.722656 78.828125 270.800781 76.613281 277.242188 76.613281 C 279.015625 76.613281 280.449219 75.179688 280.449219 73.40625 C 280.449219 71.636719 279.015625 70.203125 277.242188 70.203125 Z M 184.289062 54.898438 C 172.597656 54.65625 160.9375 53.085938 149.507812 50.207031 L 184.289062 15.425781 Z M 190.699219 15.425781 L 225.488281 50.207031 C 214.058594 53.089844 202.394531 54.660156 190.699219 54.898438 Z M 217.40625 70.203125 C 208.890625 70.203125 204.480469 73.386719 200.578125 76.195312 C 197.015625 78.757812 193.9375 80.972656 187.496094 80.972656 C 181.046875 80.972656 177.964844 78.757812 174.40625 76.191406 C 170.503906 73.382812 166.089844 70.203125 157.578125 70.203125 C 149.0625 70.203125 144.648438 73.386719 140.75 76.195312 C 137.621094 78.445312 134.726562 80.335938 129.734375 80.785156 L 112.0625 46.515625 L 143.742188 55.398438 C 172.363281 63.433594 202.625 63.425781 231.25 55.398438 L 262.925781 46.515625 L 245.253906 80.785156 C 240.261719 80.335938 237.371094 78.445312 234.242188 76.195312 C 230.339844 73.386719 225.921875 70.203125 217.40625 70.203125 Z M 217.40625 70.203125 "/></g><g clip-rule="nonzero" clip-path="url(#33f5d060db)"><path style=" stroke:none;fill-rule:nonzero;fill:#ffffff;fill-opacity:1;" d="M 144.492188 105.441406 C 148.054688 102.878906 151.136719 100.664062 157.578125 100.664062 C 164.019531 100.664062 167.097656 102.878906 170.660156 105.441406 C 174.5625 108.25 178.980469 111.429688 187.496094 111.429688 C 196.007812 111.429688 200.421875 108.25 204.324219 105.441406 C 207.882812 102.878906 210.964844 100.664062 217.40625 100.664062 C 223.855469 100.664062 226.933594 102.878906 230.496094 105.441406 C 234.398438 108.25 238.816406 111.429688 247.324219 111.429688 C 249.097656 111.429688 250.53125 109.996094 250.53125 108.222656 C 250.53125 106.453125 249.097656 105.019531 247.324219 105.019531 C 240.882812 105.019531 237.800781 102.804688 234.242188 100.238281 C 230.339844 97.433594 225.921875 94.25 217.40625 94.25 C 208.890625 94.25 204.480469 97.433594 200.578125 100.238281 C 197.015625 102.804688 193.9375 105.019531 187.496094 105.019531 C 181.046875 105.019531 177.964844 102.804688 174.40625 100.238281 C 170.503906 97.433594 166.085938 94.25 157.578125 94.25 C 149.0625 94.25 144.648438 97.433594 140.75 100.238281 C 137.1875 102.804688 134.105469 105.019531 127.664062 105.019531 C 125.894531 105.019531 124.460938 106.453125 124.460938 108.222656 C 124.460938 109.996094 125.894531 111.429688 127.664062 111.429688 C 136.179688 111.429688 140.59375 108.25 144.492188 105.441406 Z M 144.492188 105.441406 "/></g><g style="fill:#ffffff;fill-opacity:1;"><g transform="translate(24.760484, 163.479425)"><path style="stroke:none" d="M 11.25 0 L 4.03125 0 L 4.03125 -36.03125 L 18.21875 -36.03125 C 20.226562 -36.03125 21.945312 -35.625 23.375 -34.8125 C 24.8125 -34.007812 25.945312 -32.953125 26.78125 -31.640625 C 27.625 -30.328125 28.1875 -28.867188 28.46875 -27.265625 C 28.757812 -25.671875 28.757812 -24.082031 28.46875 -22.5 C 28.1875 -20.914062 27.617188 -19.46875 26.765625 -18.15625 C 25.910156 -16.851562 24.765625 -15.796875 23.328125 -14.984375 C 21.898438 -14.179688 20.195312 -13.78125 18.21875 -13.78125 L 11.25 -13.78125 Z M 11.25 -20.78125 L 17.609375 -20.78125 C 18.585938 -20.78125 19.359375 -21.050781 19.921875 -21.59375 C 20.492188 -22.132812 20.878906 -22.804688 21.078125 -23.609375 C 21.285156 -24.421875 21.285156 -25.226562 21.078125 -26.03125 C 20.878906 -26.84375 20.492188 -27.515625 19.921875 -28.046875 C 19.359375 -28.585938 18.585938 -28.859375 17.609375 -28.859375 L 11.25 -28.859375 Z M 11.25 -20.78125 "/></g></g><g style="fill:#ffffff;fill-opacity:1;"><g transform="translate(60.273867, 163.479425)"><path style="stroke:none" d="M 0.8125 0 L 16 -37.390625 L 16.75 -37.390625 L 31.9375 0 L 23.8125 0 L 22.34375 -3.890625 L 10.390625 -3.890625 L 8.984375 0 Z M 13.015625 -10.640625 L 19.671875 -10.640625 L 16.390625 -20.03125 Z M 13.015625 -10.640625 "/></g></g><g style="fill:#ffffff;fill-opacity:1;"><g transform="translate(98.309396, 163.479425)"><path style="stroke:none" d="M 11.25 0 L 4.03125 0 L 4.03125 -36.03125 L 18.21875 -36.03125 C 20.226562 -36.03125 21.945312 -35.625 23.375 -34.8125 C 24.8125 -34.007812 25.945312 -32.953125 26.78125 -31.640625 C 27.625 -30.328125 28.1875 -28.867188 28.46875 -27.265625 C 28.757812 -25.671875 28.757812 -24.082031 28.46875 -22.5 C 28.1875 -20.914062 27.617188 -19.46875 26.765625 -18.15625 C 25.910156 -16.851562 24.765625 -15.796875 23.328125 -14.984375 C 21.898438 -14.179688 20.195312 -13.78125 18.21875 -13.78125 L 11.25 -13.78125 Z M 11.25 -20.78125 L 17.609375 -20.78125 C 18.585938 -20.78125 19.359375 -21.050781 19.921875 -21.59375 C 20.492188 -22.132812 20.878906 -22.804688 21.078125 -23.609375 C 21.285156 -24.421875 21.285156 -25.226562 21.078125 -26.03125 C 20.878906 -26.84375 20.492188 -27.515625 19.921875 -28.046875 C 19.359375 -28.585938 18.585938 -28.859375 17.609375 -28.859375 L 11.25 -28.859375 Z M 11.25 -20.78125 "/></g></g><g style="fill:#ffffff;fill-opacity:1;"><g transform="translate(133.822779, 163.479425)"><path style="stroke:none" d="M 22.703125 0 L 4.03125 0 L 4.03125 -36.078125 L 22.09375 -36.078125 L 22.09375 -28.859375 L 11.25 -28.859375 L 11.25 -21.640625 L 20.734375 -21.640625 L 20.734375 -14.421875 L 11.25 -14.421875 L 11.25 -7.21875 L 22.703125 -7.21875 Z M 22.703125 0 "/></g></g><g style="fill:#ffffff;fill-opacity:1;"><g transform="translate(164.3423, 163.479425)"><path style="stroke:none" d="M 22 0 L 14.734375 -13.78125 L 11.25 -13.78125 L 11.25 0 L 4.03125 0 L 4.03125 -36.078125 L 18.265625 -36.078125 C 20.421875 -36.078125 22.242188 -35.628906 23.734375 -34.734375 C 25.234375 -33.847656 26.398438 -32.6875 27.234375 -31.25 C 28.078125 -29.820312 28.597656 -28.273438 28.796875 -26.609375 C 29.003906 -24.941406 28.878906 -23.3125 28.421875 -21.71875 C 27.972656 -20.125 27.203125 -18.710938 26.109375 -17.484375 C 25.015625 -16.253906 23.578125 -15.390625 21.796875 -14.890625 L 30.171875 0 Z M 11.25 -20.78125 L 17.609375 -20.78125 C 18.585938 -20.78125 19.367188 -21.050781 19.953125 -21.59375 C 20.546875 -22.132812 20.941406 -22.804688 21.140625 -23.609375 C 21.335938 -24.421875 21.335938 -25.226562 21.140625 -26.03125 C 20.941406 -26.84375 20.546875 -27.515625 19.953125 -28.046875 C 19.367188 -28.585938 18.585938 -28.859375 17.609375 -28.859375 L 11.25 -28.859375 Z M 11.25 -20.78125 "/></g></g><g style="fill:#ffffff;fill-opacity:1;"><g transform="translate(200.360099, 163.479425)"><path style="stroke:none" d="M 4.03125 0 L 4.03125 -36.125 L 18.3125 -36.125 C 20.46875 -36.125 22.316406 -35.648438 23.859375 -34.703125 C 25.410156 -33.765625 26.597656 -32.472656 27.421875 -30.828125 C 28.242188 -29.179688 28.625 -27.296875 28.5625 -25.171875 C 28.519531 -23.828125 28.238281 -22.5 27.71875 -21.1875 C 27.195312 -19.875 26.367188 -18.832031 25.234375 -18.0625 C 26.410156 -17.25 27.320312 -16.195312 27.96875 -14.90625 C 28.625 -13.613281 28.953125 -12.257812 28.953125 -10.84375 C 28.953125 -8.820312 28.472656 -6.992188 27.515625 -5.359375 C 26.554688 -3.734375 25.269531 -2.429688 23.65625 -1.453125 C 22.039062 -0.484375 20.257812 0 18.3125 0 Z M 11.296875 -28.90625 L 11.296875 -21.640625 L 17.703125 -21.640625 C 18.742188 -21.640625 19.554688 -22 20.140625 -22.71875 C 20.734375 -23.445312 21.03125 -24.300781 21.03125 -25.28125 C 21.03125 -26.289062 20.734375 -27.144531 20.140625 -27.84375 C 19.554688 -28.550781 18.742188 -28.90625 17.703125 -28.90625 Z M 11.296875 -14.421875 L 11.296875 -7.21875 L 17.703125 -7.21875 C 18.742188 -7.21875 19.609375 -7.566406 20.296875 -8.265625 C 20.992188 -8.972656 21.34375 -9.832031 21.34375 -10.84375 C 21.34375 -11.851562 20.992188 -12.703125 20.296875 -13.390625 C 19.609375 -14.078125 18.742188 -14.421875 17.703125 -14.421875 Z M 11.296875 -14.421875 "/></g></g><g style="fill:#ffffff;fill-opacity:1;"><g transform="translate(236.781445, 163.479425)"><path style="stroke:none" d="M 21.390625 0.5 C 18.296875 0.5 15.578125 -0.0195312 13.234375 -1.0625 C 10.898438 -2.101562 8.957031 -3.503906 7.40625 -5.265625 C 5.863281 -7.035156 4.707031 -9.03125 3.9375 -11.25 C 3.164062 -13.46875 2.78125 -15.742188 2.78125 -18.078125 C 2.78125 -20.421875 3.164062 -22.703125 3.9375 -24.921875 C 4.707031 -27.140625 5.863281 -29.128906 7.40625 -30.890625 C 8.957031 -32.660156 10.898438 -34.066406 13.234375 -35.109375 C 15.578125 -36.148438 18.296875 -36.671875 21.390625 -36.671875 C 24.484375 -36.671875 27.195312 -36.148438 29.53125 -35.109375 C 31.875 -34.066406 33.816406 -32.660156 35.359375 -30.890625 C 36.910156 -29.128906 38.070312 -27.140625 38.84375 -24.921875 C 39.625 -22.703125 40.015625 -20.421875 40.015625 -18.078125 C 40.015625 -15.742188 39.625 -13.46875 38.84375 -11.25 C 38.070312 -9.03125 36.910156 -7.035156 35.359375 -5.265625 C 33.816406 -3.503906 31.875 -2.101562 29.53125 -1.0625 C 27.195312 -0.0195312 24.484375 0.5 21.390625 0.5 Z M 21.390625 -6.96875 C 23.441406 -6.96875 25.207031 -7.367188 26.6875 -8.171875 C 28.164062 -8.984375 29.34375 -10.050781 30.21875 -11.375 C 31.09375 -12.707031 31.679688 -14.160156 31.984375 -15.734375 C 32.285156 -17.316406 32.285156 -18.898438 31.984375 -20.484375 C 31.679688 -22.066406 31.09375 -23.519531 30.21875 -24.84375 C 29.34375 -26.175781 28.164062 -27.242188 26.6875 -28.046875 C 25.207031 -28.859375 23.441406 -29.265625 21.390625 -29.265625 C 19.335938 -29.265625 17.570312 -28.859375 16.09375 -28.046875 C 14.613281 -27.242188 13.4375 -26.175781 12.5625 -24.84375 C 11.6875 -23.519531 11.097656 -22.066406 10.796875 -20.484375 C 10.492188 -18.898438 10.492188 -17.316406 10.796875 -15.734375 C 11.097656 -14.160156 11.6875 -12.707031 12.5625 -11.375 C 13.4375 -10.050781 14.613281 -8.984375 16.09375 -8.171875 C 17.570312 -7.367188 19.335938 -6.96875 21.390625 -6.96875 Z M 21.390625 -6.96875 "/></g></g><g style="fill:#ffffff;fill-opacity:1;"><g transform="translate(284.602909, 163.479425)"><path style="stroke:none" d="M 0.8125 0 L 16 -37.390625 L 16.75 -37.390625 L 31.9375 0 L 23.8125 0 L 22.34375 -3.890625 L 10.390625 -3.890625 L 8.984375 0 Z M 13.015625 -10.640625 L 19.671875 -10.640625 L 16.390625 -20.03125 Z M 13.015625 -10.640625 "/></g></g><g style="fill:#ffffff;fill-opacity:1;"><g transform="translate(322.638437, 163.479425)"><path style="stroke:none" d="M 17.203125 0 L 9.984375 0 L 9.984375 -28.859375 L 1.015625 -28.859375 L 1.015625 -36.03125 L 26.1875 -36.03125 L 26.1875 -28.859375 L 17.203125 -28.859375 Z M 17.203125 0 "/></g></g><g style="fill:#ffffff;fill-opacity:1;"><g transform="translate(140.630704, 214.936551)"><path style="stroke:none" d="M 14.09375 -26.046875 C 16.070312 -26.046875 17.90625 -25.75 19.59375 -25.15625 C 21.289062 -24.5625 22.796875 -23.53125 24.109375 -22.0625 C 24.648438 -21.4375 24.882812 -20.84375 24.8125 -20.28125 C 24.75 -19.71875 24.492188 -19.257812 24.046875 -18.90625 C 23.609375 -18.5625 23.085938 -18.398438 22.484375 -18.421875 C 21.878906 -18.453125 21.304688 -18.75 20.765625 -19.3125 C 19.773438 -20.414062 18.722656 -21.128906 17.609375 -21.453125 C 16.492188 -21.773438 15.304688 -21.9375 14.046875 -21.9375 C 12.359375 -21.9375 10.875 -21.566406 9.59375 -20.828125 C 8.320312 -20.085938 7.328125 -19.0625 6.609375 -17.75 C 5.898438 -16.4375 5.546875 -14.894531 5.546875 -13.125 C 5.546875 -11.238281 5.910156 -9.582031 6.640625 -8.15625 C 7.367188 -6.738281 8.378906 -5.640625 9.671875 -4.859375 C 10.972656 -4.085938 12.5 -3.703125 14.25 -3.703125 C 15.507812 -3.703125 16.769531 -4.023438 18.03125 -4.671875 C 19.289062 -5.316406 20.296875 -6.09375 21.046875 -7 C 21.585938 -7.644531 22.171875 -8.015625 22.796875 -8.109375 C 23.429688 -8.203125 23.984375 -8.09375 24.453125 -7.78125 C 24.921875 -7.476562 25.203125 -7.046875 25.296875 -6.484375 C 25.390625 -5.921875 25.195312 -5.289062 24.71875 -4.59375 C 23.988281 -3.570312 23.046875 -2.6875 21.890625 -1.9375 C 20.742188 -1.1875 19.5 -0.609375 18.15625 -0.203125 C 16.8125 0.203125 15.484375 0.40625 14.171875 0.40625 C 11.515625 0.40625 9.191406 -0.15625 7.203125 -1.28125 C 5.210938 -2.414062 3.664062 -3.992188 2.5625 -6.015625 C 1.46875 -8.046875 0.921875 -10.414062 0.921875 -13.125 C 0.921875 -15.726562 1.5 -17.992188 2.65625 -19.921875 C 3.8125 -21.859375 5.390625 -23.363281 7.390625 -24.4375 C 9.390625 -25.507812 11.625 -26.046875 14.09375 -26.046875 Z M 14.09375 -26.046875 "/></g></g><g style="fill:#ffffff;fill-opacity:1;"><g transform="translate(171.545617, 214.936551)"><path style="stroke:none" d="M 23.21875 -3.9375 C 23.84375 -3.300781 24.140625 -2.679688 24.109375 -2.078125 C 24.078125 -1.472656 23.847656 -0.972656 23.421875 -0.578125 C 22.992188 -0.191406 22.488281 0.00390625 21.90625 0.015625 C 21.332031 0.0351562 20.789062 -0.222656 20.28125 -0.765625 L 13.078125 -8.453125 L 7 -8.453125 L 7 -2.09375 C 7 -1.425781 6.75 -0.910156 6.25 -0.546875 C 5.757812 -0.179688 5.234375 0 4.671875 0 C 4.078125 0 3.535156 -0.171875 3.046875 -0.515625 C 2.566406 -0.867188 2.328125 -1.378906 2.328125 -2.046875 L 2.328125 -23.546875 C 2.328125 -24.160156 2.546875 -24.660156 2.984375 -25.046875 C 3.429688 -25.441406 3.992188 -25.640625 4.671875 -25.640625 L 13.640625 -25.640625 C 16.054688 -25.640625 18.066406 -25.25 19.671875 -24.46875 C 21.285156 -23.695312 22.492188 -22.648438 23.296875 -21.328125 C 24.109375 -20.015625 24.515625 -18.550781 24.515625 -16.9375 C 24.515625 -15.0625 24.007812 -13.421875 23 -12.015625 C 22 -10.609375 20.460938 -9.609375 18.390625 -9.015625 Z M 7 -12.359375 L 13.6875 -12.359375 C 15.832031 -12.359375 17.398438 -12.804688 18.390625 -13.703125 C 19.390625 -14.597656 19.859375 -15.664062 19.796875 -16.90625 C 19.773438 -18.25 19.226562 -19.363281 18.15625 -20.25 C 17.082031 -21.132812 15.59375 -21.578125 13.6875 -21.578125 L 7 -21.578125 Z M 7 -12.359375 "/></g></g><g style="fill:#ffffff;fill-opacity:1;"><g transform="translate(202.057983, 214.936551)"><path style="stroke:none" d="M 4.75 -25.640625 C 5.601562 -25.640625 6.285156 -25.238281 6.796875 -24.4375 L 15.21875 -11.265625 L 23.59375 -24.46875 C 23.851562 -24.875 24.175781 -25.171875 24.5625 -25.359375 C 24.957031 -25.546875 25.34375 -25.640625 25.71875 -25.640625 C 26.3125 -25.640625 26.832031 -25.441406 27.28125 -25.046875 C 27.738281 -24.660156 27.96875 -24.109375 27.96875 -23.390625 L 27.96875 -2.09375 C 27.96875 -1.394531 27.710938 -0.867188 27.203125 -0.515625 C 26.691406 -0.171875 26.15625 0 25.59375 0 C 25.007812 0 24.484375 -0.171875 24.015625 -0.515625 C 23.546875 -0.867188 23.3125 -1.394531 23.3125 -2.09375 L 23.3125 -15.65625 L 17.3125 -6.28125 C 17.09375 -5.875 16.785156 -5.578125 16.390625 -5.390625 C 16.003906 -5.203125 15.613281 -5.109375 15.21875 -5.109375 C 14.8125 -5.109375 14.398438 -5.222656 13.984375 -5.453125 C 13.566406 -5.679688 13.253906 -6 13.046875 -6.40625 L 7.125 -15.609375 L 7.125 -2.09375 C 7.125 -1.394531 6.875 -0.867188 6.375 -0.515625 C 5.882812 -0.171875 5.359375 0 4.796875 0 C 4.203125 0 3.660156 -0.171875 3.171875 -0.515625 C 2.691406 -0.867188 2.453125 -1.394531 2.453125 -2.09375 L 2.453125 -23.34375 C 2.453125 -24.039062 2.6875 -24.597656 3.15625 -25.015625 C 3.625 -25.429688 4.15625 -25.640625 4.75 -25.640625 Z M 4.75 -25.640625 "/></g></g></g></svg>