<svg xmlns="http://www.w3.org/2000/svg" xmlns:xlink="http://www.w3.org/1999/xlink" width="100" zoomAndPan="magnify" viewBox="0 0 75 56.249996" height="75" preserveAspectRatio="xMidYMid meet" version="1.0"><defs><clipPath id="62fc186e03"><path d="M 0.492188 8.835938 L 74.503906 8.835938 L 74.503906 46.582031 L 0.492188 46.582031 Z M 0.492188 8.835938 " clip-rule="nonzero"/></clipPath><clipPath id="3b617956f7"><path d="M 35.648438 33.566406 L 39.351562 33.566406 L 39.351562 37.265625 L 35.648438 37.265625 Z M 35.648438 33.566406 " clip-rule="nonzero"/></clipPath></defs><g clip-path="url(#62fc186e03)"><path fill="#ffffff" d="M 74.507812 8.835938 C 66.75 14.191406 59.082031 17.863281 51.523438 19.414062 C 48.167969 23.652344 44.589844 27.269531 40.765625 30.207031 C 40.417969 30.472656 39.90625 30.273438 39.835938 29.839844 C 39.832031 29.835938 39.832031 29.835938 39.832031 29.832031 C 39.664062 28.785156 40.582031 27.882812 41.621094 28.082031 C 41.628906 28.085938 41.636719 28.085938 41.644531 28.085938 C 41.40625 27.25 40.816406 26.941406 40.097656 26.820312 C 37.523438 24.980469 35.816406 27.011719 35.285156 29.9375 C 35.210938 30.367188 34.703125 30.5625 34.359375 30.300781 C 30.488281 27.347656 26.867188 23.699219 23.476562 19.414062 C 15.917969 17.863281 8.25 14.191406 0.492188 8.835938 C 1.117188 11.070312 1.894531 13.222656 2.828125 15.300781 L 15.519531 23.1875 L 5.378906 20.144531 C 7.121094 23 9.203125 25.6875 11.636719 28.195312 L 21.027344 31.792969 L 14.566406 30.984375 C 16.414062 32.605469 18.425781 34.144531 20.605469 35.597656 L 27.039062 37.546875 L 23.203125 37.242188 C 24.898438 38.261719 26.683594 39.234375 28.5625 40.160156 L 31.734375 40.160156 L 32.890625 39.027344 L 32.160156 40.554688 L 34.644531 43.402344 L 35.71875 39.742188 L 35.320312 44.175781 L 37.5 46.671875 L 39.679688 44.175781 L 39.28125 39.742188 L 40.355469 43.402344 L 42.839844 40.554688 L 42.105469 39.027344 L 43.265625 40.160156 L 46.4375 40.160156 C 48.316406 39.234375 50.101562 38.261719 51.796875 37.242188 L 47.960938 37.546875 L 54.394531 35.597656 C 56.574219 34.144531 58.585938 32.605469 60.429688 30.984375 L 53.972656 31.792969 L 63.363281 28.195312 C 65.796875 25.6875 67.878906 23 69.621094 20.144531 L 59.480469 23.1875 L 72.171875 15.300781 C 73.105469 13.222656 73.882812 11.070312 74.507812 8.835938 Z M 74.507812 8.835938 " fill-opacity="1" fill-rule="nonzero"/></g><path fill="#ffffff" d="M 39.136719 33.371094 L 37.832031 33.371094 L 37.5 32.328125 L 37.167969 33.371094 L 35.863281 33.371094 L 36.933594 34.105469 L 36.511719 35.421875 L 37.5 34.652344 L 38.488281 35.421875 L 38.066406 34.105469 Z M 39.136719 33.371094 " fill-opacity="1" fill-rule="nonzero"/><g clip-path="url(#3b617956f7)"><path fill="#ffffff" d="M 35.648438 33.566406 L 39.351562 33.566406 L 39.351562 37.265625 L 35.648438 37.265625 Z M 35.648438 33.566406 " fill-opacity="1" fill-rule="nonzero"/></g></svg>