<svg xmlns="http://www.w3.org/2000/svg" xmlns:xlink="http://www.w3.org/1999/xlink" width="200" zoomAndPan="magnify" viewBox="0 0 150 56.249996" height="75" preserveAspectRatio="xMidYMid meet" version="1.2"><defs><clipPath id="ef86f7791a"><path d="M 4.09375 15.503906 L 48.503906 15.503906 L 48.503906 38.445312 L 4.09375 38.445312 Z M 4.09375 15.503906 "/></clipPath></defs><g id="2b24306796"><g clip-rule="nonzero" clip-path="url(#ef86f7791a)"><path style=" stroke:none;fill-rule:nonzero;fill:#ffffff;fill-opacity:1;" d="M 48.503906 15.503906 C 43.847656 18.714844 39.246094 20.917969 34.710938 21.847656 C 32.699219 24.390625 30.554688 26.5625 28.257812 28.324219 C 28.050781 28.484375 27.742188 28.363281 27.699219 28.105469 C 27.699219 28.101562 27.699219 28.101562 27.699219 28.097656 C 27.597656 27.472656 28.148438 26.929688 28.773438 27.050781 C 28.777344 27.050781 28.78125 27.050781 28.785156 27.050781 C 28.640625 26.550781 28.289062 26.363281 27.859375 26.292969 C 26.3125 25.1875 25.289062 26.40625 24.972656 28.164062 C 24.925781 28.421875 24.621094 28.539062 24.414062 28.378906 C 22.089844 26.609375 19.921875 24.417969 17.886719 21.847656 C 13.351562 20.917969 8.75 18.714844 4.097656 15.503906 C 4.46875 16.84375 4.9375 18.132812 5.496094 19.378906 L 13.113281 24.113281 L 7.027344 22.285156 C 8.070312 24 9.320312 25.613281 10.78125 27.117188 L 16.414062 29.277344 L 12.539062 28.789062 C 13.648438 29.761719 14.855469 30.6875 16.164062 31.558594 L 20.023438 32.730469 L 17.722656 32.546875 C 18.738281 33.15625 19.808594 33.742188 20.9375 34.296875 L 22.839844 34.296875 L 23.535156 33.617188 L 23.097656 34.53125 L 24.585938 36.242188 L 25.230469 34.042969 L 24.992188 36.703125 L 26.300781 38.203125 L 27.605469 36.703125 L 27.367188 34.042969 L 28.011719 36.242188 L 29.503906 34.53125 L 29.0625 33.617188 L 29.757812 34.296875 L 31.660156 34.296875 C 32.789062 33.742188 33.859375 33.15625 34.875 32.546875 L 32.574219 32.730469 L 36.4375 31.558594 C 37.742188 30.6875 38.949219 29.761719 40.058594 28.789062 L 36.183594 29.277344 L 41.816406 27.117188 C 43.277344 25.613281 44.527344 24 45.570312 22.285156 L 39.488281 24.113281 L 47.101562 19.378906 C 47.664062 18.132812 48.128906 16.84375 48.503906 15.503906 Z M 48.503906 15.503906 "/></g><path style=" stroke:none;fill-rule:nonzero;fill:#ffffff;fill-opacity:1;" d="M 27.28125 30.222656 L 26.5 30.222656 L 26.300781 29.597656 L 26.101562 30.222656 L 25.316406 30.222656 L 25.957031 30.664062 L 25.707031 31.453125 L 26.300781 30.992188 L 26.890625 31.453125 L 26.640625 30.664062 Z M 27.28125 30.222656 "/><g style="fill:#ffffff;fill-opacity:1;"><g transform="translate(54.120238, 27.365775)"><path style="stroke:none" d="M 7.078125 -6.734375 L 7.078125 -5.390625 L 4.375 -5.390625 L 4.375 0 L 3.03125 0 L 3.03125 -5.390625 L 0.34375 -5.390625 L 0.34375 -6.734375 Z M 7.078125 -6.734375 "/></g></g><g style="fill:#ffffff;fill-opacity:1;"><g transform="translate(63.612956, 27.365775)"><path style="stroke:none" d="M 7.078125 -5.390625 L 7.078125 -4.046875 C 7.078125 -3.796875 7.015625 -3.566406 6.890625 -3.359375 C 6.773438 -3.160156 6.613281 -3 6.40625 -2.875 C 6.195312 -2.75 5.972656 -2.6875 5.734375 -2.6875 L 4.375 -2.6875 L 5.734375 -1.34375 L 7.078125 -1.34375 L 7.078125 0 L 5.453125 0 C 5.265625 0 5.101562 -0.0664062 4.96875 -0.203125 L 2.46875 -2.6875 L 1.6875 -2.6875 L 1.6875 0 L 0.34375 0 L 0.34375 -6.734375 L 5.734375 -6.734375 C 5.972656 -6.734375 6.195312 -6.671875 6.40625 -6.546875 C 6.613281 -6.429688 6.773438 -6.269531 6.890625 -6.0625 C 7.015625 -5.863281 7.078125 -5.640625 7.078125 -5.390625 Z M 5.734375 -5.390625 L 1.6875 -5.390625 L 1.6875 -4.046875 L 5.734375 -4.046875 Z M 5.734375 -5.390625 "/></g></g><g style="fill:#ffffff;fill-opacity:1;"><g transform="translate(73.105673, 27.365775)"><path style="stroke:none" d="M 5.734375 0 L 1.6875 0 C 1.4375 0 1.207031 -0.0546875 1 -0.171875 C 0.800781 -0.296875 0.640625 -0.460938 0.515625 -0.671875 C 0.398438 -0.878906 0.34375 -1.101562 0.34375 -1.34375 L 0.34375 -6.734375 L 1.6875 -6.734375 L 1.6875 -1.34375 L 5.734375 -1.34375 L 5.734375 -6.734375 L 7.078125 -6.734375 L 7.078125 -1.34375 C 7.078125 -1.101562 7.015625 -0.878906 6.890625 -0.671875 C 6.773438 -0.460938 6.613281 -0.296875 6.40625 -0.171875 C 6.195312 -0.0546875 5.972656 0 5.734375 0 Z M 5.734375 0 "/></g></g><g style="fill:#ffffff;fill-opacity:1;"><g transform="translate(82.598391, 27.365775)"><path style="stroke:none" d="M 7.078125 -6.734375 L 7.078125 -5.390625 L 1.6875 -5.390625 L 1.6875 -4.046875 L 7.078125 -4.046875 L 7.078125 -2.6875 L 1.6875 -2.6875 L 1.6875 -1.34375 L 7.078125 -1.34375 L 7.078125 0 L 1.6875 0 C 1.4375 0 1.207031 -0.0546875 1 -0.171875 C 0.800781 -0.296875 0.640625 -0.460938 0.515625 -0.671875 C 0.398438 -0.878906 0.34375 -1.101562 0.34375 -1.34375 L 0.34375 -5.390625 C 0.34375 -5.640625 0.398438 -5.863281 0.515625 -6.0625 C 0.640625 -6.269531 0.800781 -6.429688 1 -6.546875 C 1.207031 -6.671875 1.4375 -6.734375 1.6875 -6.734375 Z M 7.078125 -6.734375 "/></g></g><g style="fill:#ffffff;fill-opacity:1;"><g transform="translate(92.091108, 27.365775)"><path style="stroke:none" d=""/></g></g><g style="fill:#ffffff;fill-opacity:1;"><g transform="translate(97.877847, 27.365775)"><path style="stroke:none" d="M 7.078125 -6.734375 L 7.078125 -5.390625 L 1.6875 -5.390625 L 1.6875 -4.046875 L 5.734375 -4.046875 C 5.972656 -4.046875 6.195312 -3.984375 6.40625 -3.859375 C 6.613281 -3.742188 6.773438 -3.582031 6.890625 -3.375 C 7.015625 -3.164062 7.078125 -2.9375 7.078125 -2.6875 L 7.078125 -1.34375 C 7.078125 -1.101562 7.015625 -0.878906 6.890625 -0.671875 C 6.773438 -0.460938 6.613281 -0.296875 6.40625 -0.171875 C 6.195312 -0.0546875 5.972656 0 5.734375 0 L 0.34375 0 L 0.34375 -1.34375 L 5.734375 -1.34375 L 5.734375 -2.6875 L 1.6875 -2.6875 C 1.4375 -2.6875 1.207031 -2.75 1 -2.875 C 0.800781 -3 0.640625 -3.160156 0.515625 -3.359375 C 0.398438 -3.566406 0.34375 -3.796875 0.34375 -4.046875 L 0.34375 -5.390625 C 0.34375 -5.640625 0.398438 -5.863281 0.515625 -6.0625 C 0.640625 -6.269531 0.800781 -6.429688 1 -6.546875 C 1.207031 -6.671875 1.4375 -6.734375 1.6875 -6.734375 Z M 7.078125 -6.734375 "/></g></g><g style="fill:#ffffff;fill-opacity:1;"><g transform="translate(107.370565, 27.365775)"><path style="stroke:none" d="M 7.078125 0 L 0.34375 0 L 0.34375 -1.34375 L 3.03125 -1.34375 L 3.03125 -5.390625 L 0.34375 -5.390625 L 0.34375 -6.734375 L 7.078125 -6.734375 L 7.078125 -5.390625 L 4.375 -5.390625 L 4.375 -1.34375 L 7.078125 -1.34375 Z M 7.078125 0 "/></g></g><g style="fill:#ffffff;fill-opacity:1;"><g transform="translate(116.863282, 27.365775)"><path style="stroke:none" d="M 7.078125 -6.734375 L 7.078125 -5.390625 L 1.6875 -5.390625 L 1.6875 -1.34375 L 5.734375 -1.34375 L 5.734375 -2.6875 L 3.03125 -2.6875 L 3.03125 -4.046875 L 7.078125 -4.046875 L 7.078125 -1.34375 C 7.078125 -1.101562 7.015625 -0.878906 6.890625 -0.671875 C 6.773438 -0.472656 6.613281 -0.3125 6.40625 -0.1875 C 6.207031 -0.0625 5.984375 0 5.734375 0 L 1.6875 0 C 1.4375 0 1.207031 -0.0546875 1 -0.171875 C 0.800781 -0.296875 0.640625 -0.460938 0.515625 -0.671875 C 0.398438 -0.878906 0.34375 -1.101562 0.34375 -1.34375 L 0.34375 -5.390625 C 0.34375 -5.640625 0.398438 -5.863281 0.515625 -6.0625 C 0.640625 -6.269531 0.800781 -6.429688 1 -6.546875 C 1.207031 -6.671875 1.4375 -6.734375 1.6875 -6.734375 Z M 7.078125 -6.734375 "/></g></g><g style="fill:#ffffff;fill-opacity:1;"><g transform="translate(126.356, 27.365775)"><path style="stroke:none" d="M 5.734375 -4.046875 L 5.734375 -6.734375 L 7.078125 -6.734375 L 7.078125 0 L 5.734375 0 L 5.734375 -2.6875 L 1.6875 -2.6875 L 1.6875 0 L 0.34375 0 L 0.34375 -6.734375 L 1.6875 -6.734375 L 1.6875 -4.046875 Z M 5.734375 -4.046875 "/></g></g><g style="fill:#ffffff;fill-opacity:1;"><g transform="translate(135.848722, 27.365775)"><path style="stroke:none" d="M 7.078125 -6.734375 L 7.078125 -5.390625 L 4.375 -5.390625 L 4.375 0 L 3.03125 0 L 3.03125 -5.390625 L 0.34375 -5.390625 L 0.34375 -6.734375 Z M 7.078125 -6.734375 "/></g></g><g style="fill:#ffffff;fill-opacity:1;"><g transform="translate(74.590395, 35.160524)"><path style="stroke:none" d="M 1.015625 0 L 0.296875 0 L 0.296875 -3.296875 L 1.015625 -3.296875 Z M 1.015625 0 "/></g></g><g style="fill:#ffffff;fill-opacity:1;"><g transform="translate(77.445054, 35.160524)"><path style="stroke:none" d="M 2.875 0 L 2.15625 0 L 1.015625 -2.046875 L 1.015625 0 L 0.296875 0 L 0.296875 -3.296875 L 1.015625 -3.296875 L 2.15625 -1.234375 L 2.15625 -3.296875 L 2.875 -3.296875 Z M 2.875 0 "/></g></g><g style="fill:#ffffff;fill-opacity:1;"><g transform="translate(82.156677, 35.160524)"><path style="stroke:none" d="M 1.6875 -2.640625 L 1.6875 0 L 0.96875 0 L 0.96875 -2.640625 L 0.03125 -2.640625 L 0.03125 -3.296875 L 2.625 -3.296875 L 2.625 -2.640625 Z M 1.6875 -2.640625 "/></g></g><g style="fill:#ffffff;fill-opacity:1;"><g transform="translate(86.3557, 35.160524)"><path style="stroke:none" d="M 2.203125 -0.65625 L 2.203125 0 L 0.296875 0 L 0.296875 -3.296875 L 2.203125 -3.296875 L 2.203125 -2.640625 L 1.015625 -2.640625 L 1.015625 -1.984375 L 2.15625 -1.984375 L 2.15625 -1.328125 L 1.015625 -1.328125 L 1.015625 -0.65625 Z M 2.203125 -0.65625 "/></g></g><g style="fill:#ffffff;fill-opacity:1;"><g transform="translate(90.390303, 35.160524)"><path style="stroke:none" d="M 0.296875 0 L 0.296875 -3.296875 L 1.015625 -3.296875 L 1.015625 -0.65625 L 2.203125 -0.65625 L 2.203125 0 Z M 0.296875 0 "/></g></g><g style="fill:#ffffff;fill-opacity:1;"><g transform="translate(94.304008, 35.160524)"><path style="stroke:none" d="M 0.296875 0 L 0.296875 -3.296875 L 1.015625 -3.296875 L 1.015625 -0.65625 L 2.203125 -0.65625 L 2.203125 0 Z M 0.296875 0 "/></g></g><g style="fill:#ffffff;fill-opacity:1;"><g transform="translate(98.217714, 35.160524)"><path style="stroke:none" d="M 1.015625 0 L 0.296875 0 L 0.296875 -3.296875 L 1.015625 -3.296875 Z M 1.015625 0 "/></g></g><g style="fill:#ffffff;fill-opacity:1;"><g transform="translate(101.072373, 35.160524)"><path style="stroke:none" d="M 1.9375 -2.65625 C 1.757812 -2.65625 1.597656 -2.609375 1.453125 -2.515625 C 1.304688 -2.429688 1.191406 -2.3125 1.109375 -2.15625 C 1.023438 -2 0.984375 -1.828125 0.984375 -1.640625 C 0.984375 -1.453125 1.023438 -1.28125 1.109375 -1.125 C 1.191406 -0.96875 1.304688 -0.84375 1.453125 -0.75 C 1.597656 -0.65625 1.757812 -0.609375 1.9375 -0.609375 C 2.039062 -0.609375 2.148438 -0.625 2.265625 -0.65625 C 2.390625 -0.6875 2.5 -0.742188 2.59375 -0.828125 C 2.695312 -0.921875 2.78125 -1.046875 2.84375 -1.203125 L 2 -1.203125 L 2 -1.765625 L 3.625 -1.765625 L 3.625 -1.640625 C 3.625 -1.410156 3.578125 -1.191406 3.484375 -0.984375 C 3.398438 -0.785156 3.28125 -0.609375 3.125 -0.453125 C 2.976562 -0.296875 2.800781 -0.171875 2.59375 -0.078125 C 2.394531 0.00390625 2.175781 0.046875 1.9375 0.046875 C 1.707031 0.046875 1.488281 0.00390625 1.28125 -0.078125 C 1.070312 -0.171875 0.890625 -0.296875 0.734375 -0.453125 C 0.585938 -0.609375 0.46875 -0.785156 0.375 -0.984375 C 0.28125 -1.191406 0.234375 -1.410156 0.234375 -1.640625 C 0.234375 -1.878906 0.28125 -2.097656 0.375 -2.296875 C 0.46875 -2.503906 0.585938 -2.6875 0.734375 -2.84375 C 0.890625 -3 1.070312 -3.117188 1.28125 -3.203125 C 1.488281 -3.296875 1.707031 -3.34375 1.9375 -3.34375 C 2.175781 -3.34375 2.40625 -3.289062 2.625 -3.1875 C 2.84375 -3.09375 3.03125 -2.957031 3.1875 -2.78125 C 3.351562 -2.613281 3.472656 -2.414062 3.546875 -2.1875 L 2.75 -2.1875 C 2.664062 -2.363281 2.546875 -2.484375 2.390625 -2.546875 C 2.242188 -2.617188 2.09375 -2.65625 1.9375 -2.65625 Z M 1.9375 -2.65625 "/></g></g><g style="fill:#ffffff;fill-opacity:1;"><g transform="translate(106.412655, 35.160524)"><path style="stroke:none" d="M 2.203125 -0.65625 L 2.203125 0 L 0.296875 0 L 0.296875 -3.296875 L 2.203125 -3.296875 L 2.203125 -2.640625 L 1.015625 -2.640625 L 1.015625 -1.984375 L 2.15625 -1.984375 L 2.15625 -1.328125 L 1.015625 -1.328125 L 1.015625 -0.65625 Z M 2.203125 -0.65625 "/></g></g><g style="fill:#ffffff;fill-opacity:1;"><g transform="translate(110.447258, 35.160524)"><path style="stroke:none" d="M 2.875 0 L 2.15625 0 L 1.015625 -2.046875 L 1.015625 0 L 0.296875 0 L 0.296875 -3.296875 L 1.015625 -3.296875 L 2.15625 -1.234375 L 2.15625 -3.296875 L 2.875 -3.296875 Z M 2.875 0 "/></g></g><g style="fill:#ffffff;fill-opacity:1;"><g transform="translate(115.158881, 35.160524)"><path style="stroke:none" d="M 2.671875 -1.125 L 3.484375 -1.125 C 3.398438 -0.894531 3.28125 -0.691406 3.125 -0.515625 C 2.96875 -0.335938 2.78125 -0.195312 2.5625 -0.09375 C 2.351562 0 2.117188 0.046875 1.859375 0.046875 C 1.628906 0.046875 1.410156 0.00390625 1.203125 -0.078125 C 1.003906 -0.171875 0.828125 -0.296875 0.671875 -0.453125 C 0.515625 -0.609375 0.390625 -0.785156 0.296875 -0.984375 C 0.210938 -1.191406 0.171875 -1.410156 0.171875 -1.640625 C 0.171875 -1.878906 0.210938 -2.097656 0.296875 -2.296875 C 0.390625 -2.503906 0.515625 -2.6875 0.671875 -2.84375 C 0.828125 -3 1.003906 -3.117188 1.203125 -3.203125 C 1.410156 -3.296875 1.628906 -3.34375 1.859375 -3.34375 C 2.117188 -3.34375 2.351562 -3.289062 2.5625 -3.1875 C 2.78125 -3.09375 2.96875 -2.957031 3.125 -2.78125 C 3.28125 -2.613281 3.394531 -2.414062 3.46875 -2.1875 L 2.65625 -2.1875 C 2.59375 -2.332031 2.484375 -2.445312 2.328125 -2.53125 C 2.179688 -2.613281 2.023438 -2.65625 1.859375 -2.65625 C 1.679688 -2.65625 1.519531 -2.609375 1.375 -2.515625 C 1.226562 -2.429688 1.113281 -2.3125 1.03125 -2.15625 C 0.945312 -2 0.90625 -1.828125 0.90625 -1.640625 C 0.90625 -1.453125 0.945312 -1.28125 1.03125 -1.125 C 1.113281 -0.976562 1.226562 -0.859375 1.375 -0.765625 C 1.519531 -0.671875 1.679688 -0.625 1.859375 -0.625 C 2.035156 -0.625 2.195312 -0.671875 2.34375 -0.765625 C 2.488281 -0.859375 2.597656 -0.976562 2.671875 -1.125 Z M 2.671875 -1.125 "/></g></g><g style="fill:#ffffff;fill-opacity:1;"><g transform="translate(120.300891, 35.160524)"><path style="stroke:none" d="M 2.203125 -0.65625 L 2.203125 0 L 0.296875 0 L 0.296875 -3.296875 L 2.203125 -3.296875 L 2.203125 -2.640625 L 1.015625 -2.640625 L 1.015625 -1.984375 L 2.15625 -1.984375 L 2.15625 -1.328125 L 1.015625 -1.328125 L 1.015625 -0.65625 Z M 2.203125 -0.65625 "/></g></g></g></svg>